<svg width="233" height="47" viewBox="0 0 233 47" fill="none" xmlns="http://www.w3.org/2000/svg">
<g filter="url(#filter0_d_1_2)">
<path d="M17.8182 21.0795V8.18182H21.1705V30H17.8182V26.3068H17.5909C17.0795 27.4148 16.2841 28.357 15.2045 29.1335C14.125 29.9006 12.7614 30.2841 11.1136 30.2841C9.75 30.2841 8.53788 29.9858 7.47727 29.3892C6.41667 28.7831 5.58333 27.8741 4.97727 26.6619C4.37121 25.4403 4.06818 23.9015 4.06818 22.0455V8.18182H7.42045V21.8182C7.42045 23.4091 7.86553 24.678 8.75568 25.625C9.6553 26.572 10.8011 27.0455 12.1932 27.0455C13.0265 27.0455 13.8741 26.8324 14.7358 26.4062C15.607 25.9801 16.3362 25.3267 16.9233 24.446C17.5199 23.5653 17.8182 22.4432 17.8182 21.0795ZM27.3104 38.1818V8.18182H30.549V11.6477H30.9467C31.1929 11.2689 31.5339 10.786 31.9695 10.1989C32.4145 9.60227 33.049 9.07197 33.8729 8.60795C34.7062 8.13447 35.8331 7.89773 37.2536 7.89773C39.0907 7.89773 40.71 8.35701 42.1115 9.27557C43.513 10.1941 44.6068 11.4962 45.3928 13.1818C46.1787 14.8674 46.5717 16.8561 46.5717 19.1477C46.5717 21.4583 46.1787 23.4612 45.3928 25.1562C44.6068 26.8419 43.5178 28.1487 42.1257 29.0767C40.7337 29.9953 39.1286 30.4545 37.3104 30.4545C35.9089 30.4545 34.7867 30.2225 33.9439 29.7585C33.1011 29.285 32.4524 28.75 31.9979 28.1534C31.5433 27.5473 31.1929 27.0455 30.9467 26.6477H30.6626V38.1818H27.3104ZM30.6058 19.0909C30.6058 20.7386 30.8473 22.1922 31.3303 23.4517C31.8132 24.7017 32.5187 25.6818 33.4467 26.392C34.3748 27.0928 35.5111 27.4432 36.8558 27.4432C38.2573 27.4432 39.4268 27.0739 40.3643 26.3352C41.3113 25.5871 42.0215 24.5833 42.495 23.3239C42.978 22.0549 43.2195 20.6439 43.2195 19.0909C43.2195 17.5568 42.9827 16.1742 42.5092 14.9432C42.0452 13.7027 41.3397 12.7225 40.3928 12.0028C39.4553 11.2737 38.2763 10.9091 36.8558 10.9091C35.4922 10.9091 34.3464 11.2547 33.4183 11.946C32.4903 12.6278 31.7895 13.5843 31.3161 14.8153C30.8426 16.0369 30.6058 17.4621 30.6058 19.0909ZM68.049 8.18182C67.8786 6.74242 67.1873 5.625 65.9751 4.82955C64.763 4.03409 63.2763 3.63636 61.5149 3.63636C60.227 3.63636 59.1001 3.8447 58.1342 4.26136C57.1778 4.67803 56.4297 5.25095 55.8899 5.98011C55.3596 6.70928 55.0945 7.53788 55.0945 8.46591C55.0945 9.24242 55.2791 9.91004 55.6484 10.4688C56.0272 11.018 56.5102 11.4773 57.0973 11.8466C57.6844 12.2064 58.3 12.5047 58.9439 12.7415C59.5878 12.9687 60.1797 13.1534 60.7195 13.2955L63.674 14.0909C64.4316 14.2898 65.2744 14.5644 66.2024 14.9148C67.1399 15.2652 68.0348 15.7434 68.8871 16.3494C69.7488 16.946 70.459 17.7131 71.0178 18.6506C71.5765 19.5881 71.8558 20.7386 71.8558 22.1023C71.8558 23.6742 71.4439 25.0947 70.62 26.3636C69.8056 27.6326 68.6125 28.6411 67.0405 29.3892C65.478 30.1373 63.5793 30.5114 61.3445 30.5114C59.2611 30.5114 57.4571 30.1752 55.9325 29.5028C54.4174 28.8305 53.2242 27.893 52.353 26.6903C51.4912 25.4877 51.0036 24.0909 50.8899 22.5H54.5263C54.621 23.5985 54.9903 24.5076 55.6342 25.2273C56.2876 25.9375 57.1115 26.4678 58.1058 26.8182C59.1096 27.1591 60.1892 27.3295 61.3445 27.3295C62.6892 27.3295 63.8965 27.1117 64.9666 26.6761C66.0367 26.2311 66.8842 25.6155 67.5092 24.8295C68.1342 24.0341 68.4467 23.1061 68.4467 22.0455C68.4467 21.0795 68.1768 20.2936 67.6371 19.6875C67.0973 19.0814 66.3871 18.589 65.5064 18.2102C64.6257 17.8314 63.674 17.5 62.6513 17.2159L59.0717 16.1932C56.799 15.5398 54.9998 14.607 53.674 13.3949C52.3482 12.1828 51.6854 10.5966 51.6854 8.63636C51.6854 7.00757 52.1257 5.58712 53.0064 4.375C53.8965 3.15341 55.0897 2.20644 56.5859 1.53409C58.0916 0.852272 59.7725 0.511363 61.6286 0.511363C63.5036 0.511363 65.1702 0.847537 66.6286 1.51989C68.0869 2.18276 69.2422 3.09185 70.0945 4.24716C70.9562 5.40246 71.4107 6.71401 71.4581 8.18182H68.049ZM77.6477 30V0.90909H81.1705V15.3409H81.5114L94.5795 0.90909H99.1818L86.9659 14.0341L99.1818 30H94.9205L84.8068 16.4773L81.1705 20.5682V30H77.6477ZM107.264 0.90909V30H103.741V0.90909H107.264ZM114.327 30V0.90909H117.85V26.875H131.373V30H114.327ZM136.827 30V0.90909H140.35V26.875H153.873V30H136.827ZM171.771 0.90909L180.407 25.3977H180.748L189.384 0.90909H193.077L182.396 30H178.759L168.077 0.90909H171.771ZM201.131 0.90909V30H197.609V0.90909H201.131ZM206.604 4.03409V0.90909H228.422V4.03409H219.274V30H215.751V4.03409H206.604Z" fill="black"/>
<path d="M17.8182 8.18182V7.18182H16.8182V8.18182H17.8182ZM21.1705 8.18182H22.1705V7.18182H21.1705V8.18182ZM21.1705 30V31H22.1705V30H21.1705ZM17.8182 30H16.8182V31H17.8182V30ZM17.8182 26.3068H18.8182V25.3068H17.8182V26.3068ZM17.5909 26.3068V25.3068H16.9511L16.683 25.8878L17.5909 26.3068ZM15.2045 29.1335L15.7838 29.9487L15.7885 29.9453L15.2045 29.1335ZM7.47727 29.3892L6.98112 30.2575L6.98701 30.2608L7.47727 29.3892ZM4.97727 26.6619L4.08146 27.1064L4.08285 27.1091L4.97727 26.6619ZM4.06818 8.18182V7.18182H3.06818V8.18182H4.06818ZM7.42045 8.18182H8.42045V7.18182H7.42045V8.18182ZM8.75568 25.625L8.02704 26.3099L8.03068 26.3137L8.75568 25.625ZM14.7358 26.4062L14.2964 25.5079L14.2925 25.5099L14.7358 26.4062ZM16.9233 24.446L16.0954 23.8852L16.0912 23.8913L16.9233 24.446ZM18.8182 21.0795V8.18182H16.8182V21.0795H18.8182ZM17.8182 9.18182H21.1705V7.18182H17.8182V9.18182ZM20.1705 8.18182V30H22.1705V8.18182H20.1705ZM21.1705 29H17.8182V31H21.1705V29ZM18.8182 30V26.3068H16.8182V30H18.8182ZM17.8182 25.3068H17.5909V27.3068H17.8182V25.3068ZM16.683 25.8878C16.2503 26.8252 15.573 27.6367 14.6206 28.3217L15.7885 29.9453C16.9952 29.0773 17.9088 28.0044 18.4989 26.7259L16.683 25.8878ZM14.6253 28.3183C13.7524 28.9386 12.605 29.2841 11.1136 29.2841V31.2841C12.9177 31.2841 14.4976 30.8626 15.7838 29.9487L14.6253 28.3183ZM11.1136 29.2841C9.90062 29.2841 8.86107 29.0202 7.96753 28.5176L6.98701 30.2608C8.21468 30.9513 9.59938 31.2841 11.1136 31.2841V29.2841ZM7.97341 28.521C7.10272 28.0234 6.39951 27.2703 5.8717 26.2147L4.08285 27.1091C4.76716 28.4778 5.73062 29.5429 6.98113 30.2574L7.97341 28.521ZM5.87308 26.2175C5.35569 25.1746 5.06818 23.8001 5.06818 22.0455H3.06818C3.06818 24.0029 3.38673 25.706 4.08146 27.1064L5.87308 26.2175ZM5.06818 22.0455V8.18182H3.06818V22.0455H5.06818ZM4.06818 9.18182H7.42045V7.18182H4.06818V9.18182ZM6.42045 8.18182V21.8182H8.42045V8.18182H6.42045ZM6.42045 21.8182C6.42045 23.6035 6.92537 25.1379 8.02705 26.3099L9.48431 24.9401C8.80569 24.2182 8.42045 23.2147 8.42045 21.8182H6.42045ZM8.03068 26.3137C9.13253 27.4736 10.5472 28.0455 12.1932 28.0455V26.0455C11.0551 26.0455 10.1781 25.6703 9.48068 24.9363L8.03068 26.3137ZM12.1932 28.0455C13.2023 28.0455 14.2007 27.7865 15.1791 27.3026L14.2925 25.5099C13.5474 25.8783 12.8507 26.0455 12.1932 26.0455V28.0455ZM15.1752 27.3045C16.2197 26.7936 17.0793 26.0148 17.7553 25.0007L16.0912 23.8913C15.5931 24.6386 14.9943 25.1666 14.2964 25.508L15.1752 27.3045ZM17.7512 25.0069C18.4877 23.9196 18.8182 22.587 18.8182 21.0795H16.8182C16.8182 22.2993 16.552 23.2111 16.0954 23.8852L17.7512 25.0069ZM27.3104 38.1818H26.3104V39.1818H27.3104V38.1818ZM27.3104 8.18182V7.18182H26.3104V8.18182H27.3104ZM30.549 8.18182H31.549V7.18182H30.549V8.18182ZM30.549 11.6477H29.549V12.6477H30.549V11.6477ZM30.9467 11.6477V12.6477H31.4894L31.7852 12.1927L30.9467 11.6477ZM31.9695 10.1989L31.1679 9.6009L31.1664 9.60302L31.9695 10.1989ZM33.8729 8.60795L34.3636 9.47927L34.3669 9.47741L33.8729 8.60795ZM42.1115 9.27557L42.6597 8.4392L42.6597 8.4392L42.1115 9.27557ZM45.3928 13.1818L46.2991 12.7592L46.2991 12.7592L45.3928 13.1818ZM45.3928 25.1562L46.2991 25.5789L46.3 25.5769L45.3928 25.1562ZM42.1257 29.0767L42.6765 29.9114L42.6804 29.9088L42.1257 29.0767ZM33.9439 29.7585L33.4541 30.6304L33.4616 30.6345L33.9439 29.7585ZM31.9979 28.1534L31.1978 28.7534L31.2024 28.7595L31.9979 28.1534ZM30.9467 26.6477L31.797 26.1214L31.5038 25.6477H30.9467V26.6477ZM30.6626 26.6477V25.6477H29.6626V26.6477H30.6626ZM30.6626 38.1818V39.1818H31.6626V38.1818H30.6626ZM31.3303 23.4517L30.3965 23.8097L30.3975 23.8121L31.3303 23.4517ZM33.4467 26.392L32.839 27.1862L32.8441 27.1901L33.4467 26.392ZM40.3643 26.3352L40.9832 27.1207L40.9842 27.1199L40.3643 26.3352ZM42.495 23.3239L41.5604 22.9682L41.559 22.972L42.495 23.3239ZM42.5092 14.9432L41.5726 15.2935L41.5759 15.3022L42.5092 14.9432ZM40.3928 12.0028L39.7788 12.7922L39.7877 12.799L40.3928 12.0028ZM33.4183 11.946L34.0104 12.7519L34.0157 12.748L33.4183 11.946ZM31.3161 14.8153L32.2485 15.1767L32.2494 15.1743L31.3161 14.8153ZM28.3104 38.1818V8.18182H26.3104V38.1818H28.3104ZM27.3104 9.18182H30.549V7.18182H27.3104V9.18182ZM29.549 8.18182V11.6477H31.549V8.18182H29.549ZM30.549 12.6477H30.9467V10.6477H30.549V12.6477ZM31.7852 12.1927C32.0154 11.8385 32.3428 11.374 32.7726 10.7947L31.1664 9.60302C30.725 10.198 30.3704 10.6994 30.1083 11.1027L31.7852 12.1927ZM32.771 10.7968C33.1134 10.3379 33.6296 9.89268 34.3636 9.47926L33.3821 7.73665C32.4684 8.25126 31.7157 8.86665 31.1679 9.6009L32.771 10.7968ZM34.3669 9.47741C34.9941 9.12102 35.9288 8.89773 37.2536 8.89773V6.89773C35.7374 6.89773 34.4183 7.14792 33.3789 7.7385L34.3669 9.47741ZM37.2536 8.89773C38.9154 8.89773 40.3403 9.31036 41.5633 10.1119L42.6597 8.4392C41.0797 7.40366 39.2659 6.89773 37.2536 6.89773V8.89773ZM41.5633 10.1119C42.7926 10.9176 43.7701 12.0683 44.4864 13.6044L46.2991 12.7592C45.4434 10.9242 44.2334 9.47066 42.6597 8.4392L41.5633 10.1119ZM44.4864 13.6044C45.1981 15.1306 45.5717 16.969 45.5717 19.1477H47.5717C47.5717 16.7432 47.1594 14.6042 46.2991 12.7592L44.4864 13.6044ZM45.5717 19.1477C45.5717 21.3466 45.1977 23.1997 44.4855 24.7356L46.3 25.5769C47.1598 23.7227 47.5717 21.5701 47.5717 19.1477H45.5717ZM44.4864 24.7336C43.769 26.2722 42.7939 27.4294 41.571 28.2447L42.6804 29.9088C44.2416 28.868 45.4445 27.4115 46.2991 25.5789L44.4864 24.7336ZM41.5749 28.242C40.3611 29.043 38.9512 29.4545 37.3104 29.4545V31.4545C39.306 31.4545 41.1063 30.9475 42.6765 29.9114L41.5749 28.242ZM37.3104 29.4545C36.0057 29.4545 35.069 29.2364 34.4262 28.8825L33.4616 30.6345C34.5044 31.2086 35.812 31.4545 37.3104 31.4545V29.4545ZM34.4337 28.8867C33.6769 28.4615 33.145 28.009 32.7933 27.5474L31.2024 28.7595C31.7598 29.491 32.5253 30.1086 33.4541 30.6304L34.4337 28.8867ZM32.7979 27.5534C32.3517 26.9585 32.021 26.4833 31.797 26.1214L30.0965 27.1741C30.3649 27.6077 30.7349 28.1362 31.1979 28.7534L32.7979 27.5534ZM30.9467 25.6477H30.6626V27.6477H30.9467V25.6477ZM29.6626 26.6477V38.1818H31.6626V26.6477H29.6626ZM30.6626 37.1818H27.3104V39.1818H30.6626V37.1818ZM29.6058 19.0909C29.6058 20.8348 29.8613 22.4138 30.3965 23.8097L32.264 23.0937C31.8333 21.9707 31.6058 20.6425 31.6058 19.0909H29.6058ZM30.3975 23.8121C30.9368 25.2081 31.7443 26.3484 32.839 27.1862L34.0545 25.5979C33.2931 25.0152 32.6896 24.1953 32.2631 23.0913L30.3975 23.8121ZM32.8441 27.1901C33.972 28.0417 35.329 28.4432 36.8558 28.4432V26.4432C35.6932 26.4432 34.7775 26.1439 34.0493 25.594L32.8441 27.1901ZM36.8558 28.4432C38.4411 28.4432 39.8398 28.0216 40.9832 27.1207L39.7455 25.5497C39.0139 26.1261 38.0736 26.4432 36.8558 26.4432V28.4432ZM40.9842 27.1199C42.09 26.2464 42.9011 25.0855 43.4311 23.6758L41.559 22.972C41.142 24.0812 40.5327 24.9279 39.7444 25.5505L40.9842 27.1199ZM43.4296 23.6796C43.9616 22.2819 44.2195 20.7482 44.2195 19.0909H42.2195C42.2195 20.5397 41.9944 21.8279 41.5604 22.9682L43.4296 23.6796ZM44.2195 19.0909C44.2195 17.4538 43.9667 15.9469 43.4426 14.5842L41.5759 15.3022C41.9988 16.4016 42.2195 17.6599 42.2195 19.0909H44.2195ZM43.4459 14.5928C42.9234 13.1961 42.1119 12.0534 40.9978 11.2067L39.7877 12.799C40.5675 13.3917 41.167 14.2092 41.5726 15.2935L43.4459 14.5928ZM41.0067 11.2135C39.8611 10.3225 38.4536 9.90909 36.8558 9.90909V11.9091C38.099 11.9091 39.0494 12.2249 39.7788 12.7922L41.0067 11.2135ZM36.8558 9.90909C35.3166 9.90909 33.9509 10.3023 32.8209 11.1441L34.0157 12.748C34.7418 12.2071 35.6678 11.9091 36.8558 11.9091V9.90909ZM32.8262 11.1401C31.7226 11.951 30.9146 13.0734 30.3827 14.4564L32.2494 15.1743C32.6644 14.0952 33.258 13.3047 34.0104 12.7519L32.8262 11.1401ZM30.3836 14.4539C29.8561 15.815 29.6058 17.3675 29.6058 19.0909H31.6058C31.6058 17.5567 31.829 16.2588 32.2485 15.1767L30.3836 14.4539ZM68.049 8.18182L67.0559 8.29942L67.1604 9.18182H68.049V8.18182ZM65.9751 4.82955L65.4265 5.66559L65.4265 5.66559L65.9751 4.82955ZM58.1342 4.26136L57.7381 3.34315L57.7348 3.34458L58.1342 4.26136ZM55.8899 5.98011L55.0861 5.38511L55.0812 5.39194L55.8899 5.98011ZM55.6484 10.4688L54.8142 11.0202L54.8196 11.0284L54.8252 11.0365L55.6484 10.4688ZM57.0973 11.8466L56.5648 12.6931L56.5747 12.6992L57.0973 11.8466ZM58.9439 12.7415L58.5988 13.6801L58.6111 13.6845L58.9439 12.7415ZM60.7195 13.2955L60.9794 12.3298L60.974 12.3284L60.7195 13.2955ZM63.674 14.0909L63.414 15.0565L63.4201 15.0581L63.674 14.0909ZM66.2024 14.9148L65.8492 15.8503L65.8523 15.8515L66.2024 14.9148ZM68.8871 16.3494L68.3075 17.1645L68.3179 17.1716L68.8871 16.3494ZM71.0178 18.6506L71.8768 18.1386L71.8768 18.1386L71.0178 18.6506ZM70.62 26.3636L69.7813 25.8191L69.7784 25.8235L70.62 26.3636ZM67.0405 29.3892L66.6108 28.4862L66.6086 28.4873L67.0405 29.3892ZM55.9325 29.5028L55.5269 30.4169L55.529 30.4178L55.9325 29.5028ZM52.353 26.6903L51.5401 27.2728L51.5431 27.277L52.353 26.6903ZM50.8899 22.5V21.5H49.8159L49.8925 22.5712L50.8899 22.5ZM54.5263 22.5L55.5226 22.4141L55.4438 21.5H54.5263V22.5ZM55.6342 25.2273L54.8889 25.8941L54.8983 25.9043L55.6342 25.2273ZM58.1058 26.8182L57.7735 27.7614L57.7842 27.7651L58.1058 26.8182ZM64.9666 26.6761L65.3437 27.6024L65.3507 27.5995L64.9666 26.6761ZM67.5092 24.8295L68.292 25.4519L68.2956 25.4474L67.5092 24.8295ZM67.6371 19.6875L68.3838 19.0224L68.3838 19.0224L67.6371 19.6875ZM65.5064 18.2102L65.1113 19.1289L65.1113 19.1289L65.5064 18.2102ZM62.6513 17.2159L62.3766 18.1775L62.3836 18.1794L62.6513 17.2159ZM59.0717 16.1932L58.7954 17.1543L58.797 17.1547L59.0717 16.1932ZM53.674 13.3949L52.9992 14.1329L52.9992 14.1329L53.674 13.3949ZM53.0064 4.375L52.1982 3.78608L52.1974 3.7872L53.0064 4.375ZM56.5859 1.53409L56.9958 2.44623L56.9984 2.44504L56.5859 1.53409ZM66.6286 1.51989L66.2099 2.42803L66.2147 2.43025L66.6286 1.51989ZM70.0945 4.24716L69.2897 4.84081L69.2929 4.84505L70.0945 4.24716ZM71.4581 8.18182V9.18182H72.4909L72.4576 8.14958L71.4581 8.18182ZM69.0421 8.06422C68.8369 6.33137 67.9828 4.95099 66.5238 3.9935L65.4265 5.66559C66.3917 6.29901 66.9202 7.15348 67.0559 8.29942L69.0421 8.06422ZM66.5238 3.9935C65.1166 3.07003 63.429 2.63636 61.5149 2.63636V4.63636C63.1236 4.63636 64.4094 4.99816 65.4265 5.66559L66.5238 3.9935ZM61.5149 2.63636C60.1206 2.63636 58.8538 2.86187 57.7381 3.34315L58.5303 5.17957C59.3464 4.82752 60.3335 4.63636 61.5149 4.63636V2.63636ZM57.7348 3.34458C56.6422 3.82059 55.745 4.49515 55.0862 5.38513L56.6937 6.57509C57.1144 6.00674 57.7134 5.53546 58.5336 5.17814L57.7348 3.34458ZM55.0812 5.39194C54.4227 6.29731 54.0945 7.33317 54.0945 8.46591H56.0945C56.0945 7.74259 56.2965 7.12125 56.6987 6.56828L55.0812 5.39194ZM54.0945 8.46591C54.0945 9.40648 54.3204 10.2731 54.8142 11.0202L56.4827 9.91732C56.2379 9.54701 56.0945 9.07837 56.0945 8.46591H54.0945ZM54.8252 11.0365C55.2841 11.7018 55.8676 12.2544 56.5649 12.6931L57.6298 11.0001C57.1528 10.7001 56.7704 10.3342 56.4716 9.90102L54.8252 11.0365ZM56.5747 12.6992C57.2178 13.0933 57.8928 13.4205 58.5988 13.6801L59.289 11.8029C58.7071 11.589 58.151 11.3195 57.6199 10.994L56.5747 12.6992ZM58.6111 13.6845C59.2753 13.9189 59.8937 14.1122 60.465 14.2625L60.974 12.3284C60.4657 12.1946 59.9003 12.0186 59.2767 11.7985L58.6111 13.6845ZM60.4595 14.2611L63.414 15.0565L63.934 13.1253L60.9794 12.3298L60.4595 14.2611ZM63.4201 15.0581C64.1366 15.2462 64.9456 15.5092 65.8492 15.8503L66.5556 13.9792C65.6032 13.6196 64.7266 13.3333 63.9279 13.1237L63.4201 15.0581ZM65.8523 15.8515C66.7048 16.1701 67.523 16.6064 68.3076 17.1644L69.4666 15.5345C68.5467 14.8803 67.575 14.3602 66.5525 13.9781L65.8523 15.8515ZM68.3179 17.1716C69.057 17.6834 69.6702 18.3428 70.1587 19.1625L71.8768 18.1386C71.2479 17.0834 70.4406 16.2087 69.4563 15.5272L68.3179 17.1716ZM70.1587 19.1625C70.6048 19.9109 70.8558 20.8743 70.8558 22.1023H72.8558C72.8558 20.603 72.5482 19.2652 71.8768 18.1386L70.1587 19.1625ZM70.8558 22.1023C70.8558 23.4889 70.4957 24.7188 69.7813 25.8191L71.4588 26.9082C72.3921 25.4706 72.8558 23.8596 72.8558 22.1023H70.8558ZM69.7784 25.8235C69.0796 26.9124 68.0408 27.8057 66.6108 28.4862L67.4702 30.2922C69.1841 29.4765 70.5317 28.3527 71.4616 26.9038L69.7784 25.8235ZM66.6086 28.4873C65.2142 29.1549 63.4716 29.5114 61.3445 29.5114V31.5114C63.687 31.5114 65.7418 31.1197 67.4723 30.2912L66.6086 28.4873ZM61.3445 29.5114C59.3664 29.5114 57.7059 29.192 56.336 28.5879L55.529 30.4178C57.2084 31.1584 59.1559 31.5114 61.3445 31.5114V29.5114ZM56.3381 28.5888C54.9651 27.9795 53.9189 27.1474 53.1628 26.1037L51.5431 27.277C52.5295 28.6386 53.8697 29.6815 55.5269 30.4169L56.3381 28.5888ZM53.1659 26.1079C52.42 25.067 51.9889 23.8504 51.8874 22.4288L49.8925 22.5712C50.0182 24.3314 50.5624 25.9083 51.5401 27.2728L53.1659 26.1079ZM50.8899 23.5H54.5263V21.5H50.8899V23.5ZM53.53 22.5859C53.6405 23.8682 54.0807 24.9907 54.889 25.8941L56.3795 24.5605C55.8999 24.0245 55.6014 23.3288 55.5226 22.4141L53.53 22.5859ZM54.8983 25.9043C55.6725 26.7458 56.6395 27.3617 57.7735 27.7613L58.4382 25.875C57.5836 25.5739 56.9028 25.1292 56.3702 24.5502L54.8983 25.9043ZM57.7842 27.7651C58.9005 28.1442 60.0896 28.3295 61.3445 28.3295V26.3295C60.2887 26.3295 59.3187 26.174 58.4274 25.8713L57.7842 27.7651ZM61.3445 28.3295C62.7975 28.3295 64.1359 28.094 65.3437 27.6023L64.5896 25.7499C63.6572 26.1295 62.5808 26.3295 61.3445 26.3295V28.3295ZM65.3507 27.5995C66.5526 27.0995 67.5464 26.3895 68.2919 25.4519L66.7265 24.2072C66.2221 24.8415 65.5207 25.3626 64.5826 25.7528L65.3507 27.5995ZM68.2956 25.4474C69.066 24.4668 69.4467 23.3185 69.4467 22.0455H67.4467C67.4467 22.8937 67.2024 23.6014 66.7229 24.2117L68.2956 25.4474ZM69.4467 22.0455C69.4467 20.8835 69.1167 19.8453 68.3838 19.0224L66.8903 20.3526C67.237 20.7418 67.4467 21.2756 67.4467 22.0455H69.4467ZM68.3838 19.0224C67.7307 18.2891 66.8924 17.7178 65.9015 17.2916L65.1113 19.1289C65.8817 19.4602 66.4639 19.8738 66.8903 20.3526L68.3838 19.0224ZM65.9015 17.2916C64.9753 16.8932 63.9806 16.5473 62.9189 16.2524L62.3836 18.1794C63.3675 18.4527 64.2761 18.7697 65.1113 19.1289L65.9015 17.2916ZM62.926 16.2544L59.3465 15.2317L58.797 17.1547L62.3766 18.1774L62.926 16.2544ZM59.348 15.2321C57.1785 14.6084 55.5305 13.7373 54.3488 12.6569L52.9992 14.1329C54.469 15.4767 56.4195 16.4712 58.7954 17.1543L59.348 15.2321ZM54.3488 12.6569C53.2504 11.6527 52.6854 10.3444 52.6854 8.63636H50.6854C50.6854 10.8487 51.4461 12.7129 52.9992 14.1329L54.3488 12.6569ZM52.6854 8.63636C52.6854 7.19935 53.0698 5.98901 53.8154 4.9628L52.1974 3.7872C51.1816 5.18523 50.6854 6.8158 50.6854 8.63636H52.6854ZM53.8146 4.96392C54.5937 3.89471 55.6443 3.05356 56.9958 2.44623L56.1761 0.621953C54.5352 1.35932 53.1994 2.41211 52.1982 3.78608L53.8146 4.96392ZM56.9984 2.44504C58.3594 1.82874 59.8972 1.51136 61.6286 1.51136V-0.488637C59.6478 -0.488637 57.8238 -0.1242 56.1734 0.623136L56.9984 2.44504ZM61.6286 1.51136C63.383 1.51136 64.903 1.82551 66.2099 2.42802L67.0472 0.611753C65.4374 -0.130441 63.6241 -0.488637 61.6286 -0.488637V1.51136ZM66.2147 2.43025C67.5362 3.03093 68.55 3.83801 69.2897 4.84081L70.8992 3.65351C69.9344 2.3457 68.6375 1.3346 67.0424 0.609518L66.2147 2.43025ZM69.2929 4.84505C70.0299 5.83319 70.4177 6.94647 70.4586 8.21406L72.4576 8.14958C72.4038 6.48155 71.8825 4.97173 70.896 3.64926L69.2929 4.84505ZM71.4581 7.18182H68.049V9.18182H71.4581V7.18182ZM77.6477 30H76.6477V31H77.6477V30ZM77.6477 0.90909V-0.09091H76.6477V0.90909H77.6477ZM81.1705 0.90909H82.1705V-0.09091H81.1705V0.90909ZM81.1705 15.3409H80.1705V16.3409H81.1705V15.3409ZM81.5114 15.3409V16.3409H81.9549L82.2526 16.0121L81.5114 15.3409ZM94.5795 0.90909V-0.09091H94.136L93.8383 0.237871L94.5795 0.90909ZM99.1818 0.90909L99.9138 1.59039L101.479 -0.09091H99.1818V0.90909ZM86.9659 14.0341L86.2339 13.3528L85.6585 13.971L86.1717 14.6417L86.9659 14.0341ZM99.1818 30V31H101.206L99.976 29.3923L99.1818 30ZM94.9205 30L94.1196 30.5989L94.4196 31H94.9205V30ZM84.8068 16.4773L85.6076 15.8783L84.8736 14.8969L84.0594 15.8129L84.8068 16.4773ZM81.1705 20.5682L80.423 19.9038L80.1705 20.188V20.5682H81.1705ZM81.1705 30V31H82.1705V30H81.1705ZM78.6477 30V0.90909H76.6477V30H78.6477ZM77.6477 1.90909H81.1705V-0.09091H77.6477V1.90909ZM80.1705 0.90909V15.3409H82.1705V0.90909H80.1705ZM81.1705 16.3409H81.5114V14.3409H81.1705V16.3409ZM82.2526 16.0121L95.3208 1.58031L93.8383 0.237871L80.7701 14.6697L82.2526 16.0121ZM94.5795 1.90909H99.1818V-0.09091H94.5795V1.90909ZM98.4498 0.227789L86.2339 13.3528L87.6979 14.7154L99.9138 1.59039L98.4498 0.227789ZM86.1717 14.6417L98.3876 30.6077L99.976 29.3923L87.7601 13.4264L86.1717 14.6417ZM99.1818 29H94.9205V31H99.1818V29ZM95.7213 29.4011L85.6076 15.8783L84.006 17.0762L94.1196 30.5989L95.7213 29.4011ZM84.0594 15.8129L80.423 19.9038L81.9179 21.2325L85.5542 17.1416L84.0594 15.8129ZM80.1705 20.5682V30H82.1705V20.5682H80.1705ZM81.1705 29H77.6477V31H81.1705V29ZM107.264 0.90909H108.264V-0.09091H107.264V0.90909ZM107.264 30V31H108.264V30H107.264ZM103.741 30H102.741V31H103.741V30ZM103.741 0.90909V-0.09091H102.741V0.90909H103.741ZM106.264 0.90909V30H108.264V0.90909H106.264ZM107.264 29H103.741V31H107.264V29ZM104.741 30V0.90909H102.741V30H104.741ZM103.741 1.90909H107.264V-0.09091H103.741V1.90909ZM114.327 30H113.327V31H114.327V30ZM114.327 0.90909V-0.09091H113.327V0.90909H114.327ZM117.85 0.90909H118.85V-0.09091H117.85V0.90909ZM117.85 26.875H116.85V27.875H117.85V26.875ZM131.373 26.875H132.373V25.875H131.373V26.875ZM131.373 30V31H132.373V30H131.373ZM115.327 30V0.90909H113.327V30H115.327ZM114.327 1.90909H117.85V-0.09091H114.327V1.90909ZM116.85 0.90909V26.875H118.85V0.90909H116.85ZM117.85 27.875H131.373V25.875H117.85V27.875ZM130.373 26.875V30H132.373V26.875H130.373ZM131.373 29H114.327V31H131.373V29ZM136.827 30H135.827V31H136.827V30ZM136.827 0.90909V-0.09091H135.827V0.90909H136.827ZM140.35 0.90909H141.35V-0.09091H140.35V0.90909ZM140.35 26.875H139.35V27.875H140.35V26.875ZM153.873 26.875H154.873V25.875H153.873V26.875ZM153.873 30V31H154.873V30H153.873ZM137.827 30V0.90909H135.827V30H137.827ZM136.827 1.90909H140.35V-0.09091H136.827V1.90909ZM139.35 0.90909V26.875H141.35V0.90909H139.35ZM140.35 27.875H153.873V25.875H140.35V27.875ZM152.873 26.875V30H154.873V26.875H152.873ZM153.873 29H136.827V31H153.873V29ZM171.771 0.90909L172.714 0.576499L172.478 -0.09091H171.771V0.90909ZM180.407 25.3977L179.464 25.7303L179.699 26.3977H180.407V25.3977ZM180.748 25.3977V26.3977H181.456L181.691 25.7303L180.748 25.3977ZM189.384 0.90909V-0.09091H188.677L188.441 0.576499L189.384 0.90909ZM193.077 0.90909L194.016 1.25378L194.51 -0.09091H193.077V0.90909ZM182.396 30V31H183.094L183.334 30.3447L182.396 30ZM178.759 30L177.821 30.3447L178.061 31H178.759V30ZM168.077 0.90909V-0.09091H166.645L167.139 1.25378L168.077 0.90909ZM170.828 1.24168L179.464 25.7303L181.35 25.0651L172.714 0.576499L170.828 1.24168ZM180.407 26.3977H180.748V24.3977H180.407V26.3977ZM181.691 25.7303L190.327 1.24168L188.441 0.576499L179.805 25.0651L181.691 25.7303ZM189.384 1.90909H193.077V-0.09091H189.384V1.90909ZM192.139 0.564404L181.457 29.6553L183.334 30.3447L194.016 1.25378L192.139 0.564404ZM182.396 29H178.759V31H182.396V29ZM179.698 29.6553L169.016 0.564404L167.139 1.25378L177.821 30.3447L179.698 29.6553ZM168.077 1.90909H171.771V-0.09091H168.077V1.90909ZM201.131 0.90909H202.131V-0.09091H201.131V0.90909ZM201.131 30V31H202.131V30H201.131ZM197.609 30H196.609V31H197.609V30ZM197.609 0.90909V-0.09091H196.609V0.90909H197.609ZM200.131 0.90909V30H202.131V0.90909H200.131ZM201.131 29H197.609V31H201.131V29ZM198.609 30V0.90909H196.609V30H198.609ZM197.609 1.90909H201.131V-0.09091H197.609V1.90909ZM206.604 4.03409H205.604V5.03409H206.604V4.03409ZM206.604 0.90909V-0.09091H205.604V0.90909H206.604ZM228.422 0.90909H229.422V-0.09091H228.422V0.90909ZM228.422 4.03409V5.03409H229.422V4.03409H228.422ZM219.274 4.03409V3.03409H218.274V4.03409H219.274ZM219.274 30V31H220.274V30H219.274ZM215.751 30H214.751V31H215.751V30ZM215.751 4.03409H216.751V3.03409H215.751V4.03409ZM207.604 4.03409V0.90909H205.604V4.03409H207.604ZM206.604 1.90909H228.422V-0.09091H206.604V1.90909ZM227.422 0.90909V4.03409H229.422V0.90909H227.422ZM228.422 3.03409H219.274V5.03409H228.422V3.03409ZM218.274 4.03409V30H220.274V4.03409H218.274ZM219.274 29H215.751V31H219.274V29ZM216.751 30V4.03409H214.751V30H216.751ZM215.751 3.03409H206.604V5.03409H215.751V3.03409Z" fill="black"/>
</g>
<defs>
<filter id="filter0_d_1_2" x="0.0681839" y="0.511368" width="232.354" height="45.6705" filterUnits="userSpaceOnUse" color-interpolation-filters="sRGB">
<feFlood flood-opacity="0" result="BackgroundImageFix"/>
<feColorMatrix in="SourceAlpha" type="matrix" values="0 0 0 0 0 0 0 0 0 0 0 0 0 0 0 0 0 0 127 0" result="hardAlpha"/>
<feOffset dy="4"/>
<feGaussianBlur stdDeviation="2"/>
<feComposite in2="hardAlpha" operator="out"/>
<feColorMatrix type="matrix" values="0 0 0 0 0 0 0 0 0 0 0 0 0 0 0 0 0 0 0.25 0"/>
<feBlend mode="normal" in2="BackgroundImageFix" result="effect1_dropShadow_1_2"/>
<feBlend mode="normal" in="SourceGraphic" in2="effect1_dropShadow_1_2" result="shape"/>
</filter>
</defs>
</svg>
