<svg width="233" height="47" fill="none" xmlns="http://www.w3.org/2000/svg"><g filter="url(#a)" fill="#000"><path d="M17.818 21.08V8.181h3.352V30h-3.352v-3.693h-.227c-.512 1.108-1.307 2.05-2.387 2.827-1.079.767-2.443 1.15-4.09 1.15-1.364 0-2.576-.298-3.637-.895-1.06-.606-1.894-1.515-2.5-2.727-.606-1.222-.909-2.76-.909-4.616V8.181H7.42v13.636c0 1.591.446 2.86 1.336 3.807.9.947 2.045 1.42 3.437 1.42.834 0 1.681-.213 2.543-.639.871-.426 1.6-1.08 2.187-1.96.597-.88.895-2.003.895-3.367Zm9.492 17.102v-30h3.239v3.466h.398c.246-.38.587-.862 1.023-1.45.444-.596 1.079-1.126 1.903-1.59.833-.474 1.96-.71 3.38-.71 1.838 0 3.457.459 4.858 1.378 1.402.918 2.496 2.22 3.282 3.906.786 1.685 1.179 3.674 1.179 5.966 0 2.31-.393 4.313-1.18 6.008-.785 1.686-1.874 2.993-3.266 3.92-1.392.92-2.997 1.378-4.816 1.378-1.401 0-2.523-.232-3.366-.695-.843-.474-1.492-1.009-1.946-1.606a21.473 21.473 0 0 1-1.051-1.505h-.284v11.534H27.31Zm3.296-19.091c0 1.648.241 3.101.724 4.36.483 1.25 1.189 2.23 2.117 2.941.928.7 2.064 1.051 3.409 1.051 1.401 0 2.57-.37 3.508-1.108.947-.748 1.658-1.752 2.131-3.011.483-1.27.724-2.68.724-4.233 0-1.534-.236-2.917-.71-4.148-.464-1.24-1.17-2.22-2.116-2.94-.938-.73-2.117-1.094-3.537-1.094-1.364 0-2.51.346-3.438 1.037-.928.682-1.628 1.638-2.102 2.87-.473 1.22-.71 2.646-.71 4.275ZM68.049 8.18c-.17-1.439-.862-2.556-2.074-3.351-1.212-.796-2.699-1.194-4.46-1.194-1.288 0-2.415.209-3.38.625-.957.417-1.705.99-2.245 1.72a4.12 4.12 0 0 0-.796 2.485c0 .776.185 1.444.554 2.003.38.549.862 1.008 1.45 1.378.586.36 1.202.658 1.846.895a22.91 22.91 0 0 0 1.775.553l2.955.796c.758.199 1.6.473 2.528.824.938.35 1.833.828 2.685 1.434a7.308 7.308 0 0 1 2.13 2.302c.56.937.839 2.088.839 3.451 0 1.572-.412 2.993-1.236 4.262-.814 1.269-2.008 2.277-3.58 3.025-1.562.748-3.46 1.122-5.696 1.122-2.083 0-3.887-.336-5.412-1.008-1.515-.672-2.708-1.61-3.579-2.813-.862-1.202-1.35-2.6-1.463-4.19h3.636c.095 1.099.464 2.008 1.108 2.727.654.71 1.477 1.24 2.472 1.591 1.004.341 2.083.511 3.238.511 1.345 0 2.553-.217 3.623-.653 1.07-.445 1.917-1.06 2.542-1.846.625-.796.938-1.724.938-2.784 0-.966-.27-1.752-.81-2.358-.54-.607-1.25-1.099-2.13-1.478-.881-.379-1.833-.71-2.856-.994l-3.58-1.023C56.8 15.54 55 14.607 53.675 13.395c-1.326-1.212-1.989-2.798-1.989-4.759 0-1.628.44-3.049 1.321-4.261.89-1.222 2.084-2.169 3.58-2.84C58.092.851 59.773.51 61.629.51c1.875 0 3.541.337 5 1.009 1.458.663 2.613 1.572 3.465 2.727.862 1.155 1.317 2.467 1.364 3.935H68.05ZM77.648 30V.91h3.523v14.43h.34L94.58.91h4.602L86.966 14.033 99.182 30H94.92L84.806 16.477l-3.636 4.091V30h-3.523ZM107.264.91V30h-3.523V.91h3.523ZM114.327 30V.91h3.523v25.965h13.523V30h-17.046Zm22.5 0V.91h3.523v25.965h13.523V30h-17.046ZM171.771.91l8.636 24.488h.341L189.384.909h3.693L182.396 30h-3.637L168.077.91h3.694Zm29.36 0V30h-3.522V.91h3.522Zm5.473 3.124V.91h21.818v3.125h-9.148V30h-3.523V4.034h-9.147Z"/><path d="M17.818 8.182v-1h-1v1h1Zm3.352 0h1v-1h-1v1Zm0 21.818v1h1v-1h-1Zm-3.352 0h-1v1h1v-1Zm0-3.693h1v-1h-1v1Zm-.227 0v-1h-.64l-.268.58.908.42Zm-2.387 2.827.58.815.005-.004-.585-.811Zm-7.727.255-.496.869.006.003.49-.872Zm-2.5-2.727-.896.444.002.003.894-.447Zm-.909-18.48v-1h-1v1h1Zm3.352 0h1v-1h-1v1Zm1.336 17.443-.729.685.004.004.725-.689Zm5.98.781-.44-.898-.003.002.443.896Zm2.187-1.96-.828-.56-.004.005.832.555Zm1.895-3.367V8.182h-2v12.897h2Zm-1-11.897h3.352v-2h-3.352v2Zm2.352-1V30h2V8.182h-2Zm1 20.818h-3.352v2h3.352v-2Zm-2.352 1v-3.693h-2V30h2Zm-1-4.693h-.227v2h.227v-2Zm-1.135.58c-.433.938-1.11 1.75-2.062 2.435l1.168 1.623c1.206-.868 2.12-1.94 2.71-3.22l-1.816-.837Zm-2.058 2.431c-.873.62-2.02.966-3.511.966v2c1.804 0 3.384-.421 4.67-1.335l-1.159-1.63Zm-3.511.966c-1.213 0-2.253-.264-3.146-.766l-.981 1.743c1.228.69 2.612 1.023 4.127 1.023v-2Zm-3.14-.763c-.871-.498-1.574-1.25-2.102-2.306l-1.79.894c.685 1.369 1.649 2.434 2.9 3.148l.991-1.736Zm-2.1-2.303c-.518-1.043-.806-2.418-.806-4.172h-2c0 1.957.319 3.66 1.013 5.06l1.792-.889Zm-.806-4.172V8.181h-2v13.864h2Zm-1-12.864H7.42v-2H4.068v2Zm2.352-1v13.636h2V8.182h-2Zm0 13.636c0 1.785.505 3.32 1.607 4.492l1.457-1.37c-.678-.722-1.064-1.725-1.064-3.122h-2Zm1.61 4.496c1.103 1.16 2.517 1.732 4.163 1.732v-2c-1.138 0-2.015-.376-2.712-1.11l-1.45 1.378Zm4.163 1.732c1.01 0 2.008-.26 2.986-.743l-.886-1.793c-.746.368-1.442.535-2.1.535v2Zm2.982-.741c1.045-.511 1.904-1.29 2.58-2.304l-1.664-1.11c-.498.748-1.097 1.276-1.795 1.617l.88 1.797Zm2.576-2.298c.737-1.087 1.067-2.42 1.067-3.928h-2c0 1.22-.266 2.132-.723 2.806l1.656 1.122Zm9.56 13.175h-1v1h1v-1Zm0-30v-1h-1v1h1Zm3.238 0h1v-1h-1v1Zm0 3.466h-1v1h1v-1Zm.398 0v1h.542l.296-.455-.838-.545Zm1.023-1.45-.802-.597-.002.002.803.596Zm1.903-1.59.49.871.004-.002-.494-.869Zm8.239.668.548-.837-.548.837Zm3.28 3.906.907-.423-.906.423Zm0 11.974.907.423.001-.002-.907-.42Zm-3.266 3.92.55.835.004-.002-.554-.832Zm-8.182.683-.49.871.008.005.482-.877Zm-1.946-1.606-.8.6.004.006.796-.606Zm-1.051-1.505.85-.527-.293-.473h-.557v1Zm-.284 0v-1h-1v1h1Zm0 11.534v1h1v-1h-1Zm.667-14.73-.933.358v.002l.933-.36Zm2.117 2.94-.608.794.005.004.603-.798Zm6.917-.057.62.786v-.001l-.62-.785Zm2.131-3.011-.935-.356-.001.004.936.352Zm.014-8.38-.936.35.003.008.933-.359Zm-2.116-2.941-.614.79.009.006.605-.796Zm-6.975-.057.592.806.006-.004-.598-.802Zm-2.102 2.87.933.36v-.002l-.933-.359ZM28.31 38.181v-30h-2v30h2Zm-1-29h3.239v-2H27.31v2Zm2.239-1v3.466h2V8.182h-2Zm1 4.466h.398v-2h-.398v2Zm1.236-.455c.23-.354.558-.819.988-1.398l-1.607-1.192a30.845 30.845 0 0 0-1.058 1.5l1.677 1.09Zm.986-1.396c.342-.46.859-.904 1.593-1.318l-.982-1.742c-.914.514-1.666 1.13-2.214 1.864l1.603 1.196Zm1.596-1.32c.627-.356 1.562-.58 2.887-.58v-2c-1.517 0-2.836.25-3.875.841l.988 1.74Zm2.887-.58c1.661 0 3.086.413 4.31 1.215l1.096-1.673c-1.58-1.035-3.394-1.541-5.406-1.541v2Zm4.31 1.215c1.229.806 2.206 1.956 2.922 3.492l1.813-.845c-.856-1.835-2.066-3.288-3.64-4.32l-1.096 1.673Zm2.922 3.492c.712 1.527 1.086 3.365 1.086 5.544h2c0-2.405-.413-4.544-1.273-6.389l-1.813.845Zm1.086 5.544c0 2.199-.374 4.052-1.087 5.588l1.815.84c.86-1.853 1.272-4.006 1.272-6.428h-2Zm-1.086 5.586c-.717 1.538-1.692 2.695-2.915 3.51l1.11 1.665c1.56-1.041 2.764-2.497 3.618-4.33l-1.813-.845Zm-2.911 3.508c-1.214.801-2.624 1.212-4.265 1.212v2c1.996 0 3.796-.506 5.366-1.543l-1.101-1.669Zm-4.265 1.212c-1.304 0-2.241-.218-2.884-.572l-.964 1.752c1.042.575 2.35.82 3.848.82v-2Zm-2.876-.567c-.757-.425-1.289-.878-1.64-1.34l-1.592 1.212c.558.732 1.323 1.35 2.252 1.871l.98-1.743Zm-1.636-1.334a20.537 20.537 0 0 1-1.001-1.432l-1.7 1.053c.268.434.638.962 1.1 1.58l1.6-1.2Zm-1.851-1.905h-.284v2h.284v-2Zm-1.284 1v11.534h2V26.648h-2Zm1 10.534H27.31v2h3.353v-2ZM29.606 19.09c0 1.744.255 3.323.79 4.719l1.868-.716c-.43-1.123-.658-2.452-.658-4.003h-2Zm.791 4.721c.54 1.396 1.347 2.536 2.442 3.374l1.215-1.588c-.76-.583-1.364-1.403-1.79-2.507l-1.867.721Zm2.447 3.378c1.128.852 2.485 1.253 4.012 1.253v-2c-1.163 0-2.078-.3-2.807-.849l-1.205 1.596Zm4.012 1.253c1.585 0 2.984-.421 4.127-1.322l-1.237-1.571c-.732.576-1.672.893-2.89.893v2Zm4.128-1.323c1.106-.874 1.917-2.035 2.447-3.444l-1.872-.704c-.417 1.11-1.026 1.956-1.815 2.578l1.24 1.57Zm2.446-3.44c.532-1.398.79-2.932.79-4.59h-2c0 1.45-.226 2.738-.66 3.878l1.87.712Zm.79-4.59c0-1.636-.253-3.143-.777-4.506l-1.867.718c.423 1.1.643 2.358.643 3.789h2Zm-.774-4.497c-.523-1.397-1.334-2.54-2.448-3.386l-1.21 1.592c.78.593 1.379 1.41 1.785 2.495l1.873-.701Zm-2.44-3.38c-1.145-.89-2.552-1.304-4.15-1.304v2c1.243 0 2.193.316 2.923.883l1.228-1.579Zm-4.15-1.304c-1.54 0-2.905.393-4.035 1.235l1.195 1.604c.726-.54 1.652-.839 2.84-.839v-2Zm-4.03 1.231c-1.103.811-1.911 1.933-2.443 3.316l1.866.718c.415-1.079 1.009-1.87 1.761-2.422l-1.184-1.612Zm-2.442 3.314c-.528 1.361-.778 2.913-.778 4.637h2c0-1.534.223-2.832.642-3.914l-1.864-.723Zm37.665-6.272-.993.117.104.883h.889v-1ZM65.975 4.83l-.548.836.548-.836Zm-7.84-.569-.397-.918-.003.002.4.916Zm-2.245 1.72-.804-.596-.005.007.809.588Zm-.242 4.488-.834.551.006.008.005.008.823-.567Zm1.45 1.378-.533.846.01.006.522-.852Zm1.846.895-.345.938.012.005.333-.944Zm1.775.553.26-.965-.005-.002-.255.968Zm2.955.796-.26.966.006.001.254-.967Zm2.528.824-.353.935.003.002.35-.937Zm2.685 1.434-.58.816.01.007.57-.823Zm2.13 2.302.86-.512-.86.512Zm-.397 7.713-.839-.545-.003.005.842.54Zm-3.58 3.025-.43-.903-.001.001.431.902Zm-11.108.114-.405.914h.002l.403-.914Zm-3.579-2.813-.813.583.003.004.81-.587ZM50.89 22.5v-1h-1.074l.076 1.071.998-.071Zm3.636 0 .997-.086-.08-.914h-.917v1Zm1.108 2.727-.745.667.01.01.735-.677Zm2.472 1.591-.333.943.011.004.322-.947Zm6.86-.142.378.926.007-.003-.384-.923Zm2.543-1.846.783.622.004-.005-.787-.617Zm.128-5.142.747-.666-.747.666Zm-2.13-1.478-.396.919.395-.919Zm-2.856-.994-.274.961.007.002.267-.963Zm-3.58-1.023-.276.961h.002l.275-.96Zm-5.397-2.798-.675.738.675-.738Zm-.668-9.02-.808-.589v.001l.808.588Zm3.58-2.84.41.911.002-.001-.412-.91Zm10.043-.015-.42.908.006.002.414-.91Zm3.465 2.727-.804.594.003.004.801-.598Zm1.364 3.935v1h1.033l-.033-1.032-1 .032Zm-2.416-.118c-.205-1.733-1.06-3.113-2.518-4.07l-1.097 1.672c.965.633 1.493 1.487 1.629 2.633l1.986-.235Zm-2.518-4.07c-1.407-.924-3.095-1.358-5.01-1.358v2c1.61 0 2.895.362 3.913 1.03l1.097-1.673Zm-5.01-1.358c-1.393 0-2.66.226-3.776.707l.792 1.837c.816-.352 1.803-.544 2.985-.544v-2Zm-3.78.709c-1.092.476-1.989 1.15-2.648 2.04l1.608 1.19c.42-.568 1.02-1.04 1.84-1.397l-.8-1.833Zm-2.653 2.047a5.119 5.119 0 0 0-.987 3.074h2c0-.723.203-1.345.605-1.898L55.08 5.392Zm-.987 3.074c0 .94.226 1.807.72 2.554l1.669-1.103c-.245-.37-.389-.839-.389-1.451h-2Zm.731 2.57a5.917 5.917 0 0 0 1.74 1.657L57.63 11c-.477-.3-.86-.666-1.158-1.099l-1.647 1.136Zm1.75 1.663c.643.394 1.318.722 2.024.981l.69-1.877a9.378 9.378 0 0 1-1.67-.809l-1.044 1.705Zm2.036.986c.664.234 1.283.427 1.854.577l.509-1.934a21.885 21.885 0 0 1-1.697-.53l-.666 1.886Zm1.849.576 2.954.796.52-1.932-2.955-.795-.52 1.931Zm2.96.797c.717.188 1.526.451 2.43.792l.706-1.87a26.726 26.726 0 0 0-2.628-.856l-.508 1.934Zm2.432.793c.853.32 1.671.755 2.456 1.313l1.159-1.63a12.67 12.67 0 0 0-2.915-1.556l-.7 1.873Zm2.466 1.32a6.308 6.308 0 0 1 1.84 1.992l1.719-1.024a8.307 8.307 0 0 0-2.42-2.612l-1.14 1.645Zm1.84 1.992c.447.748.698 1.711.698 2.94h2c0-1.5-.308-2.838-.98-3.964l-1.717 1.024Zm.698 2.94c0 1.386-.36 2.616-1.075 3.716l1.678 1.09c.933-1.438 1.397-3.05 1.397-4.807h-2Zm-1.078 3.72c-.698 1.09-1.737 1.983-3.167 2.663l.86 1.806c1.713-.816 3.06-1.94 3.99-3.388l-1.683-1.08Zm-3.17 2.664c-1.394.668-3.136 1.024-5.264 1.024v2c2.343 0 4.398-.391 6.128-1.22l-.863-1.804Zm-5.264 1.024c-1.978 0-3.638-.319-5.008-.923l-.807 1.83c1.68.74 3.627 1.093 5.815 1.093v-2Zm-5.006-.922c-1.373-.61-2.42-1.442-3.175-2.485l-1.62 1.173c.986 1.362 2.327 2.404 3.984 3.14l.811-1.828Zm-3.172-2.481c-.746-1.041-1.177-2.258-1.279-3.68l-1.995.143c.126 1.76.67 3.337 1.648 4.702l1.626-1.165ZM50.89 23.5h3.636v-2H50.89v2Zm2.64-.914c.11 1.282.55 2.405 1.359 3.308l1.49-1.333c-.48-.537-.778-1.232-.856-2.147l-1.993.172Zm1.368 3.318c.774.842 1.741 1.458 2.875 1.857l.665-1.886c-.854-.301-1.535-.746-2.068-1.325l-1.472 1.354Zm2.886 1.861c1.117.38 2.306.564 3.56.564v-2a9.008 9.008 0 0 1-2.917-.458l-.643 1.894Zm3.56.564c1.453 0 2.792-.235 4-.727l-.754-1.852c-.933.38-2.01.58-3.246.58v2Zm4.007-.73c1.202-.5 2.195-1.21 2.94-2.147l-1.564-1.245c-.505.634-1.206 1.156-2.144 1.546l.768 1.846Zm2.945-2.152c.77-.98 1.15-2.128 1.15-3.401h-2c0 .848-.244 1.555-.723 2.166l1.573 1.235Zm1.15-3.401c0-1.162-.33-2.2-1.062-3.024l-1.494 1.33c.347.39.557.924.557 1.694h2Zm-1.062-3.024c-.653-.733-1.492-1.304-2.483-1.73l-.79 1.837c.77.331 1.353.745 1.78 1.224l1.493-1.33Zm-2.483-1.73a23.38 23.38 0 0 0-2.982-1.04l-.535 1.927c.983.274 1.892.59 2.727.95l.79-1.837Zm-2.975-1.038-3.58-1.022-.549 1.923 3.58 1.022.549-1.923Zm-3.578-1.022c-2.17-.624-3.817-1.495-5-2.575L53 14.133c1.47 1.344 3.42 2.338 5.796 3.021l.553-1.922Zm-5-2.575c-1.098-1.004-1.663-2.313-1.663-4.02h-2c0 2.212.761 4.076 2.314 5.496l1.35-1.476Zm-1.663-4.02c0-1.438.385-2.648 1.13-3.674l-1.618-1.176c-1.015 1.398-1.512 3.029-1.512 4.85h2Zm1.13-3.673c.779-1.07 1.83-1.91 3.18-2.518L56.177.622c-1.64.737-2.977 1.79-3.978 3.164l1.617 1.178Zm3.183-2.519c1.361-.616 2.9-.934 4.63-.934v-2c-1.98 0-3.804.365-5.455 1.112l.825 1.822Zm4.63-.934c1.755 0 3.275.315 4.582.917l.837-1.816c-1.61-.742-3.423-1.1-5.418-1.1v2Zm4.587.92c1.321.6 2.335 1.407 3.075 2.41l1.61-1.187c-.966-1.308-2.263-2.32-3.858-3.044l-.827 1.82Zm3.078 2.414c.737.988 1.125 2.101 1.166 3.37l1.999-.065c-.054-1.668-.576-3.178-1.562-4.5l-1.603 1.195Zm2.165 2.337H68.05v2h3.41v-2ZM77.648 30h-1v1h1v-1Zm0-29.09v-1h-1v1h1Zm3.523 0h1v-1h-1v1Zm0 14.43h-1v1h1v-1Zm.34 0v1h.444l.298-.328-.742-.671ZM94.58.91v-1h-.444l-.298.328.742.671Zm4.602 0 .732.68 1.565-1.68h-2.297v1ZM86.966 14.033l-.732-.681-.575.618.513.67.794-.607ZM99.182 30v1h2.024l-1.23-1.608-.794.608Zm-4.261 0-.801.599.3.401h.5v-1ZM84.806 16.477l.8-.599-.733-.981-.815.916.748.664Zm-3.636 4.091-.748-.664-.252.284v.38h1Zm0 9.432v1h1v-1h-1Zm-2.523 0V.91h-2V30h2Zm-1-28.09h3.523v-2h-3.523v2Zm2.523-1v14.43h2V.91h-2Zm1 15.43h.34v-2h-.34v2Zm1.082-.328L95.32 1.58 93.838.238 80.77 14.67l1.483 1.342ZM94.579 1.91h4.603v-2h-4.603v2ZM98.45.228 86.235 13.353l1.464 1.362L99.914 1.59 98.45.228ZM86.173 14.642l12.216 15.966 1.588-1.216L87.76 13.426l-1.588 1.216ZM99.182 29H94.92v2h4.26v-2Zm-3.46.401L85.607 15.878l-1.602 1.198L94.12 30.6 95.72 29.4ZM84.058 15.813l-3.636 4.09 1.495 1.33 3.636-4.091-1.495-1.33Zm-3.888 4.755V30h2v-9.432h-2Zm1 8.432h-3.523v2h3.523v-2ZM107.264.91h1v-1h-1v1Zm0 29.09v1h1v-1h-1Zm-3.523 0h-1v1h1v-1Zm0-29.09v-1h-1v1h1Zm2.523 0V30h2V.91h-2Zm1 28.09h-3.523v2h3.523v-2Zm-2.523 1V.91h-2V30h2Zm-1-28.09h3.523v-2h-3.523v2ZM114.327 30h-1v1h1v-1Zm0-29.09v-1h-1v1h1Zm3.523 0h1v-1h-1v1Zm0 25.965h-1v1h1v-1Zm13.523 0h1v-1h-1v1Zm0 3.125v1h1v-1h-1Zm-16.046 0V.91h-2V30h2Zm-1-28.09h3.523v-2h-3.523v2Zm2.523-1v25.965h2V.909h-2Zm1 26.965h13.523v-2H117.85v2Zm12.523-1V30h2v-3.125h-2Zm1 2.125h-17.046v2h17.046v-2Zm5.454 1h-1v1h1v-1Zm0-29.09v-1h-1v1h1Zm3.523 0h1v-1h-1v1Zm0 25.965h-1v1h1v-1Zm13.523 0h1v-1h-1v1Zm0 3.125v1h1v-1h-1Zm-16.046 0V.91h-2V30h2Zm-1-28.09h3.523v-2h-3.523v2Zm2.523-1v25.965h2V.909h-2Zm1 26.965h13.523v-2H140.35v2Zm12.523-1V30h2v-3.125h-2Zm1 2.125h-17.046v2h17.046v-2ZM171.771.91l.943-.334-.236-.667h-.707v1Zm8.636 24.488-.943.332.235.668h.708v-1Zm.341 0v1h.708l.235-.668-.943-.332ZM189.384.909v-1h-.707l-.236.667.943.333Zm3.693 0 .939.345.494-1.345h-1.433v1ZM182.396 30v1h.698l.24-.655-.938-.345Zm-3.637 0-.938.345.24.655h.698v-1ZM168.077.91v-1h-1.432l.494 1.344.938-.345Zm2.751.332 8.636 24.488 1.886-.665L172.714.576l-1.886.666Zm9.579 25.156h.341v-2h-.341v2Zm1.284-.668 8.636-24.488-1.886-.666-8.636 24.49 1.886.664Zm7.693-23.82h3.693v-2h-3.693v2Zm2.755-1.346-10.682 29.091 1.877.69 10.682-29.091-1.877-.69ZM182.396 29h-3.637v2h3.637v-2Zm-2.698.655L169.016.565l-1.877.689 10.682 29.09 1.877-.689ZM168.077 1.91h3.694v-2h-3.694v2Zm33.054-1h1v-1h-1v1Zm0 29.091v1h1v-1h-1Zm-3.522 0h-1v1h1v-1Zm0-29.09v-1h-1v1h1Zm2.522 0V30h2V.91h-2Zm1 28.09h-3.522v2h3.522v-2Zm-2.522 1V.91h-2V30h2Zm-1-28.09h3.522v-2h-3.522v2Zm8.995 2.124h-1v1h1v-1Zm0-3.125v-1h-1v1h1Zm21.818 0h1v-1h-1v1Zm0 3.125v1h1v-1h-1Zm-9.148 0v-1h-1v1h1Zm0 25.966v1h1v-1h-1Zm-3.523 0h-1v1h1v-1Zm0-25.966h1v-1h-1v1Zm-8.147 0V.91h-2v3.125h2Zm-1-2.125h21.818v-2h-21.818v2Zm20.818-1v3.125h2V.91h-2Zm1 2.125h-9.148v2h9.148v-2Zm-10.148 1V30h2V4.034h-2Zm1 24.966h-3.523v2h3.523v-2Zm-2.523 1V4.034h-2V30h2Zm-1-26.966h-9.147v2h9.147v-2Z"/></g><defs><filter id="a" x=".068" y=".511" width="232.354" height="45.67" filterUnits="userSpaceOnUse" color-interpolation-filters="sRGB"><feFlood flood-opacity="0" result="BackgroundImageFix"/><feColorMatrix in="SourceAlpha" values="0 0 0 0 0 0 0 0 0 0 0 0 0 0 0 0 0 0 127 0" result="hardAlpha"/><feOffset dy="4"/><feGaussianBlur stdDeviation="2"/><feComposite in2="hardAlpha" operator="out"/><feColorMatrix values="0 0 0 0 0 0 0 0 0 0 0 0 0 0 0 0 0 0 0.25 0"/><feBlend in2="BackgroundImageFix" result="effect1_dropShadow_1_2"/><feBlend in="SourceGraphic" in2="effect1_dropShadow_1_2" result="shape"/></filter></defs></svg>